<mxfile host="app.diagrams.net" modified="2024-05-10T15:43:47.582Z" agent="Mozilla/5.0 (Windows NT 10.0; Win64; x64; rv:123.0) Gecko/20100101 Firefox/123.0" version="24.3.1" etag="_Lxfyh4gzUvySc7VXU0u" type="github">
  <diagram name="Seite-1" id="3ppysXwjjv4OeTmiPCt0">
    <mxGraphModel>
      <root>
        <mxCell id="0" />
        <mxCell id="1" parent="0" />
      </root>
    </mxGraphModel>
  </diagram>
</mxfile>
